<svg id="Layer_2" data-name="Layer 2" xmlns="http://www.w3.org/2000/svg" viewBox="0 0 2176.54 2176.54"><defs><style>.cls-1{fill:#ffede1;stroke:#000;stroke-miterlimit:10;}</style></defs><title>Artboard 1</title><g id="Layer_3" data-name="Layer 3"><path class="cls-1" d="M0,0V2176.54H2176.54V0ZM275.53,139c195.78-32,292.5,30.42,292.5,179.4,0,177.05-110,337-385.32,301.07ZM501,2020.28H425.29l-99.06-331.49h-3.9l-61.62,331.49H179.59l93.6-482,83.46-3.12,92,329.15h3.9l60.84-327.59h81.12ZM595.33,910.79H456.49l-79.56,409.49H289.57l78.78-409.49H229.51l14.82-74.1H610.15Zm493.72-774.88h119.34c14.82,159.12,28.08,319,38.22,481.25l-85.8,6.24c-2.34-45.24-4.68-90.48-7-136.5H1008.71c-18.72,44.46-38.22,88.92-56.16,133.38H865.19C935.39,459.6,1011.05,296.58,1089.05,135.91Zm198.12,1473.32H1077.35l-26.52,136.5h177.84l-12.48,63.17H1038.35l-27.3,138.84h213.72l-19.5,72.54H911.21l93.6-483.59h296.4ZM1249,1158.82c-24.18,122.46-90.48,172.38-186.42,172.38-102.18,0-159.9-56.94-132.6-195l58.5-299.52h85.8l-58.5,304.19c-17.16,86.58,9.36,115.44,57.72,115.44,46,0,75.66-28.86,88.92-95.94l62.4-323.69h86.58ZM1975.11,2014l-93.6,12.48-103.74-223.85v-.78c99.84-46,136.5-85.81,136.5-134.94,0-47.58-42.9-71-128.7-60.84L1706,2020.28h-85.8L1713,1539c216.06-29.64,287.82,30.42,287.82,110.76,0,69.42-49.92,122.46-126.36,164.57Zm-100.62-899.68L1975.11,1314l-93.6,12.48-103.74-223.85v-.78c99.84-46,136.5-85.81,136.5-134.94,0-47.58-42.9-71-128.7-60.84L1706,1320.28h-85.8L1713,839c216.06-29.64,287.82,30.42,287.82,110.76C2000.85,1019.21,1950.93,1072.25,1874.49,1114.36Zm61.62-494.08h-75.66l-99.06-331.49h-3.9l-61.62,331.49h-81.12l93.6-482,83.46-3.12,92,329.15h3.9l60.84-327.59h81.12Z"/><path class="cls-1" d="M481.45,327c0-89.7-42.9-131.82-132.6-123.24L281.77,552.42C415.15,561,481.45,451,481.45,327Z"/><path class="cls-1" d="M1137.41,210h-6.24c-31.2,70.2-63.18,141.18-94.38,212.16h113.88C1146.77,351.19,1142.09,280.21,1137.41,210Z"/></g></svg>